<mxfile host="65bd71144e">
    <diagram name="Standby Loop" id="oGgIKcy1KZ6UAMiOBFBA">
        <mxGraphModel dx="512" dy="331" grid="1" gridSize="10" guides="1" tooltips="1" connect="1" arrows="1" fold="1" page="1" pageScale="1" pageWidth="827" pageHeight="1169" background="#000000" math="0" shadow="0">
            <root>
                <mxCell id="J8uCGS3BcCjM7RrEL_1T-0"/>
                <mxCell id="J8uCGS3BcCjM7RrEL_1T-1" parent="J8uCGS3BcCjM7RrEL_1T-0"/>
                <mxCell id="0Lq6ei8JvvkG0iNvDyIp-28" value="" style="rounded=1;whiteSpace=wrap;html=1;strokeColor=default;container=0;" parent="J8uCGS3BcCjM7RrEL_1T-1" vertex="1">
                    <mxGeometry x="80" y="40" width="680" height="490" as="geometry"/>
                </mxCell>
                <mxCell id="GXZVyJL7a8LmTCk5dLTQ-2" value="" style="edgeStyle=orthogonalEdgeStyle;rounded=0;orthogonalLoop=1;jettySize=auto;html=1;" parent="J8uCGS3BcCjM7RrEL_1T-1" edge="1">
                    <mxGeometry relative="1" as="geometry">
                        <mxPoint x="295" y="169.00150943396227" as="sourcePoint"/>
                    </mxGeometry>
                </mxCell>
                <mxCell id="0Lq6ei8JvvkG0iNvDyIp-15" value="" style="edgeStyle=orthogonalEdgeStyle;rounded=0;orthogonalLoop=1;jettySize=auto;html=1;" parent="J8uCGS3BcCjM7RrEL_1T-1" edge="1">
                    <mxGeometry relative="1" as="geometry">
                        <mxPoint x="20" y="425" as="sourcePoint"/>
                    </mxGeometry>
                </mxCell>
                <mxCell id="0Lq6ei8JvvkG0iNvDyIp-16" value="" style="edgeStyle=orthogonalEdgeStyle;rounded=0;orthogonalLoop=1;jettySize=auto;html=1;" parent="J8uCGS3BcCjM7RrEL_1T-1" edge="1">
                    <mxGeometry relative="1" as="geometry">
                        <mxPoint x="170" y="425" as="sourcePoint"/>
                    </mxGeometry>
                </mxCell>
                <mxCell id="0Lq6ei8JvvkG0iNvDyIp-17" value="" style="edgeStyle=orthogonalEdgeStyle;rounded=0;orthogonalLoop=1;jettySize=auto;html=1;" parent="J8uCGS3BcCjM7RrEL_1T-1" edge="1">
                    <mxGeometry relative="1" as="geometry">
                        <mxPoint x="320" y="425" as="sourcePoint"/>
                    </mxGeometry>
                </mxCell>
                <mxCell id="0Lq6ei8JvvkG0iNvDyIp-23" value="" style="edgeStyle=orthogonalEdgeStyle;rounded=0;orthogonalLoop=1;jettySize=auto;html=1;" parent="J8uCGS3BcCjM7RrEL_1T-1" edge="1">
                    <mxGeometry relative="1" as="geometry">
                        <mxPoint x="720" y="415.79999999999995" as="sourcePoint"/>
                    </mxGeometry>
                </mxCell>
                <mxCell id="0Lq6ei8JvvkG0iNvDyIp-24" value="" style="edgeStyle=orthogonalEdgeStyle;rounded=0;orthogonalLoop=1;jettySize=auto;html=1;" parent="J8uCGS3BcCjM7RrEL_1T-1" edge="1">
                    <mxGeometry relative="1" as="geometry">
                        <mxPoint x="830" y="415.79999999999995" as="sourcePoint"/>
                    </mxGeometry>
                </mxCell>
                <mxCell id="0Lq6ei8JvvkG0iNvDyIp-25" value="" style="edgeStyle=orthogonalEdgeStyle;rounded=0;orthogonalLoop=1;jettySize=auto;html=1;" parent="J8uCGS3BcCjM7RrEL_1T-1" edge="1">
                    <mxGeometry relative="1" as="geometry">
                        <mxPoint x="940" y="415.79999999999995" as="sourcePoint"/>
                    </mxGeometry>
                </mxCell>
                <mxCell id="0Lq6ei8JvvkG0iNvDyIp-26" value="" style="edgeStyle=orthogonalEdgeStyle;rounded=0;orthogonalLoop=1;jettySize=auto;html=1;" parent="J8uCGS3BcCjM7RrEL_1T-1" edge="1">
                    <mxGeometry relative="1" as="geometry">
                        <mxPoint x="1050" y="415.79999999999995" as="sourcePoint"/>
                    </mxGeometry>
                </mxCell>
                <mxCell id="GXZVyJL7a8LmTCk5dLTQ-3" value="" style="edgeStyle=orthogonalEdgeStyle;rounded=0;orthogonalLoop=1;jettySize=auto;html=1;" parent="J8uCGS3BcCjM7RrEL_1T-1" edge="1">
                    <mxGeometry relative="1" as="geometry">
                        <mxPoint x="475" y="169.00150943396227" as="sourcePoint"/>
                    </mxGeometry>
                </mxCell>
                <mxCell id="nOzmlmnSID6Bgxyw5HdH-5" value="&lt;font style=&quot;font-size: 20px;&quot;&gt;Streaming Replication&lt;/font&gt;" style="edgeStyle=orthogonalEdgeStyle;rounded=0;orthogonalLoop=1;jettySize=auto;html=1;" parent="J8uCGS3BcCjM7RrEL_1T-1" edge="1">
                    <mxGeometry relative="1" as="geometry">
                        <mxPoint x="300" y="140" as="sourcePoint"/>
                        <mxPoint x="570" y="140" as="targetPoint"/>
                    </mxGeometry>
                </mxCell>
                <mxCell id="nOzmlmnSID6Bgxyw5HdH-2" value="&lt;h1 style=&quot;margin-top: 0px;&quot;&gt;Primary&lt;/h1&gt;" style="text;html=1;whiteSpace=wrap;overflow=hidden;rounded=0;align=center;" parent="J8uCGS3BcCjM7RrEL_1T-1" vertex="1">
                    <mxGeometry x="160" y="50" width="180" height="60" as="geometry"/>
                </mxCell>
                <mxCell id="nOzmlmnSID6Bgxyw5HdH-3" value="&lt;h1 style=&quot;margin-top: 0px;&quot;&gt;Standby&lt;/h1&gt;" style="text;html=1;whiteSpace=wrap;overflow=hidden;rounded=0;align=center;" parent="J8uCGS3BcCjM7RrEL_1T-1" vertex="1">
                    <mxGeometry x="530" y="50" width="180" height="60" as="geometry"/>
                </mxCell>
                <mxCell id="nOzmlmnSID6Bgxyw5HdH-7" value="SELECT FROM TABLE A" style="rounded=1;whiteSpace=wrap;html=1;" parent="J8uCGS3BcCjM7RrEL_1T-1" vertex="1">
                    <mxGeometry x="570" y="210" width="100" height="190" as="geometry"/>
                </mxCell>
                <mxCell id="nOzmlmnSID6Bgxyw5HdH-16" style="edgeStyle=orthogonalEdgeStyle;rounded=0;orthogonalLoop=1;jettySize=auto;html=1;" parent="J8uCGS3BcCjM7RrEL_1T-1" source="nOzmlmnSID6Bgxyw5HdH-8" edge="1">
                    <mxGeometry relative="1" as="geometry">
                        <mxPoint x="570" y="310" as="targetPoint"/>
                    </mxGeometry>
                </mxCell>
                <mxCell id="nOzmlmnSID6Bgxyw5HdH-8" value="DROP TABLE A" style="rounded=1;whiteSpace=wrap;html=1;" parent="J8uCGS3BcCjM7RrEL_1T-1" vertex="1">
                    <mxGeometry x="200" y="280" width="100" height="60" as="geometry"/>
                </mxCell>
                <mxCell id="nOzmlmnSID6Bgxyw5HdH-14" value="" style="endArrow=classicThin;dashed=1;html=1;rounded=0;exitX=0.5;exitY=1;exitDx=0;exitDy=0;endFill=1;" parent="J8uCGS3BcCjM7RrEL_1T-1" edge="1">
                    <mxGeometry width="50" height="50" relative="1" as="geometry">
                        <mxPoint x="250" y="190" as="sourcePoint"/>
                        <mxPoint x="250" y="530" as="targetPoint"/>
                    </mxGeometry>
                </mxCell>
                <mxCell id="nOzmlmnSID6Bgxyw5HdH-13" value="" style="endArrow=classicThin;dashed=1;html=1;rounded=0;exitX=0.5;exitY=1;exitDx=0;exitDy=0;endFill=1;" parent="J8uCGS3BcCjM7RrEL_1T-1" source="nOzmlmnSID6Bgxyw5HdH-17" edge="1">
                    <mxGeometry width="50" height="50" relative="1" as="geometry">
                        <mxPoint x="400" y="380" as="sourcePoint"/>
                        <mxPoint x="620" y="530" as="targetPoint"/>
                    </mxGeometry>
                </mxCell>
                <mxCell id="nOzmlmnSID6Bgxyw5HdH-18" value="" style="endArrow=classicThin;dashed=1;html=1;rounded=0;exitX=0.5;exitY=1;exitDx=0;exitDy=0;endFill=1;" parent="J8uCGS3BcCjM7RrEL_1T-1" target="nOzmlmnSID6Bgxyw5HdH-17" edge="1">
                    <mxGeometry width="50" height="50" relative="1" as="geometry">
                        <mxPoint x="620" y="190" as="sourcePoint"/>
                        <mxPoint x="620" y="530" as="targetPoint"/>
                    </mxGeometry>
                </mxCell>
                <mxCell id="nOzmlmnSID6Bgxyw5HdH-17" value="APPLY DROP TABLE WAL" style="rounded=1;whiteSpace=wrap;html=1;" parent="J8uCGS3BcCjM7RrEL_1T-1" vertex="1">
                    <mxGeometry x="570" y="420" width="100" height="60" as="geometry"/>
                </mxCell>
                <mxCell id="1" value="" style="shape=cylinder3;whiteSpace=wrap;html=1;boundedLbl=1;backgroundOutline=1;size=15;" vertex="1" parent="J8uCGS3BcCjM7RrEL_1T-1">
                    <mxGeometry x="200" y="90" width="100" height="100" as="geometry"/>
                </mxCell>
                <mxCell id="2" value="" style="shape=cylinder3;whiteSpace=wrap;html=1;boundedLbl=1;backgroundOutline=1;size=15;" vertex="1" parent="J8uCGS3BcCjM7RrEL_1T-1">
                    <mxGeometry x="570" y="90" width="100" height="100" as="geometry"/>
                </mxCell>
            </root>
        </mxGraphModel>
    </diagram>
</mxfile>